<?xml version="1.0" encoding="UTF-8"?>
<svg width="27px" height="34px" viewBox="0 0 27 34" version="1.1" xmlns="http://www.w3.org/2000/svg" xmlns:xlink="http://www.w3.org/1999/xlink">
    <!-- Generator: Sketch 50.2 (55047) - http://www.bohemiancoding.com/sketch -->
    <title>Group</title>
    <desc>Created with Sketch.</desc>
    <defs></defs>
    <g id="Ecrans-Mobiles-Proto" stroke="none" stroke-width="1" fill="none" fill-rule="evenodd">
        <g id="6" transform="translate(-359.000000, -211.000000)" fill="#50BF87" fill-rule="nonzero">
            <g id="Group" transform="translate(359.000000, 211.000000)">
                <path d="M22.8841571,11.769676 L20.9226579,11.769676 L20.9226579,7.95292552 C20.9226579,3.64580024 17.4900343,0.0660642476 13.182909,0.000680941754 C8.81857338,-0.0565294509 5.23066447,3.49868781 5.23066447,7.84667765 L5.23066447,11.769676 L3.26916529,11.769676 C1.47112438,11.769676 0,13.2408004 0,15.0388413 L0,30.7308347 C0,32.5288756 1.47112438,34 3.26916529,34 L22.8841571,34 C24.682198,34 26.1533224,32.5288756 26.1533224,30.7308347 L26.1533224,15.0388413 C26.1533224,13.2408004 24.682198,11.769676 22.8841571,11.769676 Z M14.220869,21.9694717 L14.220869,27.592436 C14.220869,28.2054045 13.7468401,28.7366439 13.1338716,28.7693355 C12.4800385,28.8020272 11.9324533,28.2789607 11.9324533,27.6251277 L11.9324533,21.9694717 C10.9925683,21.5117886 10.3714269,20.5146932 10.4695019,19.3786582 C10.5839226,18.1118567 11.6218826,17.0984154 12.8886842,17.0085134 C14.4170189,16.9022655 15.6919934,18.1118567 15.6919934,19.6156727 C15.6919934,20.6536327 15.0953707,21.5444802 14.220869,21.9694717 Z M18.6342422,11.769676 L7.51908018,11.769676 L7.51908018,7.84667765 C7.51908018,6.36738035 8.09935702,4.9779851 9.15366282,3.92367929 C10.2079686,2.86937349 11.5973639,2.28909665 13.0766612,2.28909665 C14.5559585,2.28909665 15.9453537,2.86937349 16.9996595,3.92367929 C18.0539653,4.9779851 18.6342422,6.36738035 18.6342422,7.84667765 L18.6342422,11.769676 Z" id="Shape"></path>
            </g>
        </g>
    </g>
</svg>